<mxfile host="app.diagrams.net" modified="2023-06-25T07:39:37.714Z" agent="Mozilla/5.0 (Windows NT 10.0; Win64; x64) AppleWebKit/537.36 (KHTML, like Gecko) Chrome/114.0.0.0 Safari/537.36" etag="2QgRt6KFmQaE9fnC7waQ" version="21.5.0" type="github">
  <diagram name="第 1 页" id="FgbeuhmCxTpXGzqwo7Mq">
    <mxGraphModel dx="1985" dy="1175" grid="0" gridSize="10" guides="1" tooltips="1" connect="1" arrows="1" fold="1" page="1" pageScale="1" pageWidth="827" pageHeight="1169" math="0" shadow="0">
      <root>
        <mxCell id="0" />
        <mxCell id="1" parent="0" />
        <mxCell id="SDIlasXmzMNW4l37rZuf-70" value="&lt;font style=&quot;font-size: 18px;&quot;&gt;一柜通相关ID&lt;/font&gt;" style="rounded=0;whiteSpace=wrap;html=1;fontFamily=Helvetica;fontSize=18;" vertex="1" parent="1">
          <mxGeometry x="763.5" y="177.56999999999994" width="120" height="60" as="geometry" />
        </mxCell>
        <mxCell id="SDIlasXmzMNW4l37rZuf-71" style="edgeStyle=orthogonalEdgeStyle;rounded=0;orthogonalLoop=1;jettySize=auto;html=1;exitX=0.5;exitY=1;exitDx=0;exitDy=0;fontFamily=Helvetica;fontSize=14;" edge="1" parent="1" source="SDIlasXmzMNW4l37rZuf-73" target="SDIlasXmzMNW4l37rZuf-79">
          <mxGeometry relative="1" as="geometry" />
        </mxCell>
        <mxCell id="SDIlasXmzMNW4l37rZuf-72" style="edgeStyle=orthogonalEdgeStyle;rounded=0;orthogonalLoop=1;jettySize=auto;html=1;entryX=0.5;entryY=0;entryDx=0;entryDy=0;fontFamily=Helvetica;fontSize=14;" edge="1" parent="1" source="SDIlasXmzMNW4l37rZuf-73" target="SDIlasXmzMNW4l37rZuf-81">
          <mxGeometry relative="1" as="geometry" />
        </mxCell>
        <mxCell id="SDIlasXmzMNW4l37rZuf-73" value="数据清洗&amp;amp;统计聚合" style="rounded=0;whiteSpace=wrap;html=1;fontFamily=Helvetica;fontSize=18;" vertex="1" parent="1">
          <mxGeometry x="1003.5" y="321.99999999999994" width="164" height="50" as="geometry" />
        </mxCell>
        <mxCell id="SDIlasXmzMNW4l37rZuf-74" value="设备" style="rounded=0;whiteSpace=wrap;html=1;fontFamily=Helvetica;fontSize=18;" vertex="1" parent="1">
          <mxGeometry x="957.5" y="177.56999999999994" width="120" height="60" as="geometry" />
        </mxCell>
        <mxCell id="SDIlasXmzMNW4l37rZuf-75" value="积分商城等" style="rounded=0;whiteSpace=wrap;html=1;fontFamily=Helvetica;fontSize=18;" vertex="1" parent="1">
          <mxGeometry x="1283.5" y="177.56999999999994" width="120" height="60" as="geometry" />
        </mxCell>
        <mxCell id="SDIlasXmzMNW4l37rZuf-76" value="&lt;font style=&quot;font-size: 18px;&quot;&gt;互联网平台&lt;/font&gt;" style="rounded=0;whiteSpace=wrap;html=1;fontFamily=Helvetica;fontSize=18;" vertex="1" parent="1">
          <mxGeometry x="1123.5" y="177.56999999999994" width="120" height="60" as="geometry" />
        </mxCell>
        <mxCell id="SDIlasXmzMNW4l37rZuf-78" style="edgeStyle=orthogonalEdgeStyle;rounded=0;jumpStyle=none;orthogonalLoop=1;jettySize=auto;html=1;exitX=0.5;exitY=1;exitDx=0;exitDy=0;entryX=0;entryY=0.5;entryDx=0;entryDy=0;fontFamily=Helvetica;fontSize=16;strokeColor=#000000;" edge="1" parent="1" source="SDIlasXmzMNW4l37rZuf-79" target="SDIlasXmzMNW4l37rZuf-105">
          <mxGeometry relative="1" as="geometry" />
        </mxCell>
        <mxCell id="SDIlasXmzMNW4l37rZuf-79" value="构造T-1日ID节点集合，增加节点类型" style="rounded=0;whiteSpace=wrap;html=1;fontFamily=Helvetica;fontSize=18;gradientColor=#ffffff;" vertex="1" parent="1">
          <mxGeometry x="752.5" y="503.56999999999994" width="320" height="55" as="geometry" />
        </mxCell>
        <mxCell id="SDIlasXmzMNW4l37rZuf-80" style="edgeStyle=orthogonalEdgeStyle;rounded=0;jumpStyle=none;orthogonalLoop=1;jettySize=auto;html=1;entryX=1;entryY=0.5;entryDx=0;entryDy=0;fontFamily=Helvetica;fontSize=16;strokeColor=#000000;" edge="1" parent="1" source="SDIlasXmzMNW4l37rZuf-81" target="SDIlasXmzMNW4l37rZuf-105">
          <mxGeometry relative="1" as="geometry" />
        </mxCell>
        <mxCell id="SDIlasXmzMNW4l37rZuf-81" value="&lt;span style=&quot;font-size: 18px;&quot;&gt;构造T-1日边集合，两两建边&lt;/span&gt;" style="rounded=0;whiteSpace=wrap;html=1;fontFamily=Helvetica;fontSize=18;gradientColor=#ffffff;" vertex="1" parent="1">
          <mxGeometry x="1116" y="503.56999999999994" width="279" height="55" as="geometry" />
        </mxCell>
        <mxCell id="SDIlasXmzMNW4l37rZuf-82" style="edgeStyle=orthogonalEdgeStyle;rounded=0;orthogonalLoop=1;jettySize=auto;html=1;exitX=0.5;exitY=1;exitDx=0;exitDy=0;fontFamily=Helvetica;fontSize=14;" edge="1" parent="1" source="SDIlasXmzMNW4l37rZuf-83" target="SDIlasXmzMNW4l37rZuf-88">
          <mxGeometry relative="1" as="geometry" />
        </mxCell>
        <mxCell id="SDIlasXmzMNW4l37rZuf-83" value="ID节点+边集合输入图框架&lt;br style=&quot;font-size: 18px;&quot;&gt;构造图" style="rounded=0;whiteSpace=wrap;html=1;fontFamily=Helvetica;fontSize=18;gradientColor=#ffffff;" vertex="1" parent="1">
          <mxGeometry x="967.8800000000001" y="705.5699999999999" width="233.25" height="64.44" as="geometry" />
        </mxCell>
        <mxCell id="SDIlasXmzMNW4l37rZuf-84" style="edgeStyle=orthogonalEdgeStyle;rounded=0;orthogonalLoop=1;jettySize=auto;html=1;exitX=0;exitY=0.5;exitDx=0;exitDy=0;entryX=1;entryY=0.5;entryDx=0;entryDy=0;fontFamily=Helvetica;fontSize=16;strokeColor=#000000;" edge="1" parent="1" source="SDIlasXmzMNW4l37rZuf-86" target="SDIlasXmzMNW4l37rZuf-90">
          <mxGeometry relative="1" as="geometry" />
        </mxCell>
        <mxCell id="SDIlasXmzMNW4l37rZuf-85" style="edgeStyle=orthogonalEdgeStyle;rounded=0;orthogonalLoop=1;jettySize=auto;html=1;exitX=1;exitY=0.5;exitDx=0;exitDy=0;entryX=0;entryY=0.5;entryDx=0;entryDy=0;fontFamily=Helvetica;fontSize=16;strokeColor=#000000;jumpStyle=none;" edge="1" parent="1" source="SDIlasXmzMNW4l37rZuf-86" target="SDIlasXmzMNW4l37rZuf-97">
          <mxGeometry relative="1" as="geometry" />
        </mxCell>
        <mxCell id="SDIlasXmzMNW4l37rZuf-86" value="候选ID池" style="rounded=1;whiteSpace=wrap;html=1;fontFamily=Helvetica;fontSize=18;gradientColor=#ffffff;" vertex="1" parent="1">
          <mxGeometry x="1034.5" y="1025.07" width="118" height="52" as="geometry" />
        </mxCell>
        <mxCell id="SDIlasXmzMNW4l37rZuf-87" style="edgeStyle=orthogonalEdgeStyle;rounded=0;orthogonalLoop=1;jettySize=auto;html=1;exitX=0.5;exitY=1;exitDx=0;exitDy=0;fontFamily=Helvetica;fontSize=14;" edge="1" parent="1" source="SDIlasXmzMNW4l37rZuf-88" target="SDIlasXmzMNW4l37rZuf-95">
          <mxGeometry relative="1" as="geometry" />
        </mxCell>
        <mxCell id="SDIlasXmzMNW4l37rZuf-88" value="极大联通图计算" style="rounded=0;whiteSpace=wrap;html=1;fontFamily=Helvetica;fontSize=18;gradientColor=#ffffff;" vertex="1" parent="1">
          <mxGeometry x="991" y="806.5699999999999" width="187" height="60" as="geometry" />
        </mxCell>
        <mxCell id="SDIlasXmzMNW4l37rZuf-89" style="edgeStyle=orthogonalEdgeStyle;rounded=0;jumpStyle=none;orthogonalLoop=1;jettySize=auto;html=1;exitX=0.5;exitY=1;exitDx=0;exitDy=0;entryX=0.5;entryY=0;entryDx=0;entryDy=0;fontFamily=Helvetica;fontSize=16;strokeColor=#000000;" edge="1" parent="1" source="SDIlasXmzMNW4l37rZuf-90" target="SDIlasXmzMNW4l37rZuf-99">
          <mxGeometry relative="1" as="geometry" />
        </mxCell>
        <mxCell id="SDIlasXmzMNW4l37rZuf-90" value="按业务规则清洗&lt;br style=&quot;font-size: 18px&quot;&gt;或按规则、置信度拆分&lt;br style=&quot;font-size: 18px&quot;&gt;OneID赋值" style="rounded=0;whiteSpace=wrap;html=1;fontFamily=Helvetica;fontSize=18;gradientColor=#ffffff;" vertex="1" parent="1">
          <mxGeometry x="702.5" y="1008.5699999999999" width="218" height="85" as="geometry" />
        </mxCell>
        <mxCell id="SDIlasXmzMNW4l37rZuf-91" style="edgeStyle=orthogonalEdgeStyle;rounded=0;orthogonalLoop=1;jettySize=auto;html=1;exitX=0;exitY=0.5;exitDx=0;exitDy=0;entryX=0.5;entryY=0;entryDx=0;entryDy=0;fontFamily=Helvetica;fontSize=14;" edge="1" parent="1" source="SDIlasXmzMNW4l37rZuf-95" target="SDIlasXmzMNW4l37rZuf-90">
          <mxGeometry relative="1" as="geometry" />
        </mxCell>
        <mxCell id="SDIlasXmzMNW4l37rZuf-92" value="是" style="edgeLabel;html=1;align=center;verticalAlign=middle;resizable=0;points=[];fontSize=18;fontFamily=Helvetica;" vertex="1" connectable="0" parent="SDIlasXmzMNW4l37rZuf-91">
          <mxGeometry x="-0.1503" y="-4" relative="1" as="geometry">
            <mxPoint x="1" y="-11" as="offset" />
          </mxGeometry>
        </mxCell>
        <mxCell id="SDIlasXmzMNW4l37rZuf-93" style="edgeStyle=orthogonalEdgeStyle;rounded=0;orthogonalLoop=1;jettySize=auto;html=1;exitX=1;exitY=0.5;exitDx=0;exitDy=0;entryX=0.5;entryY=0;entryDx=0;entryDy=0;fontFamily=Helvetica;fontSize=14;" edge="1" parent="1" source="SDIlasXmzMNW4l37rZuf-95" target="SDIlasXmzMNW4l37rZuf-97">
          <mxGeometry relative="1" as="geometry" />
        </mxCell>
        <mxCell id="SDIlasXmzMNW4l37rZuf-94" value="否" style="edgeLabel;html=1;align=center;verticalAlign=middle;resizable=0;points=[];fontSize=18;fontFamily=Helvetica;" vertex="1" connectable="0" parent="SDIlasXmzMNW4l37rZuf-93">
          <mxGeometry x="-0.1515" y="2" relative="1" as="geometry">
            <mxPoint x="-18" y="-11" as="offset" />
          </mxGeometry>
        </mxCell>
        <mxCell id="SDIlasXmzMNW4l37rZuf-95" value="判断每个极大联通图中&lt;br style=&quot;font-size: 18px;&quot;&gt;是否存在多自然人情况" style="rhombus;whiteSpace=wrap;html=1;fontFamily=Helvetica;fontSize=18;gradientColor=#ffffff;" vertex="1" parent="1">
          <mxGeometry x="934.51" y="901.5699999999999" width="300" height="101" as="geometry" />
        </mxCell>
        <mxCell id="SDIlasXmzMNW4l37rZuf-96" style="edgeStyle=orthogonalEdgeStyle;rounded=0;jumpStyle=none;orthogonalLoop=1;jettySize=auto;html=1;exitX=0.5;exitY=1;exitDx=0;exitDy=0;fontFamily=Helvetica;fontSize=16;strokeColor=#000000;entryX=0.5;entryY=0;entryDx=0;entryDy=0;" edge="1" parent="1" source="SDIlasXmzMNW4l37rZuf-97" target="SDIlasXmzMNW4l37rZuf-99">
          <mxGeometry relative="1" as="geometry">
            <mxPoint x="1085.1998901367188" y="1174.57" as="targetPoint" />
          </mxGeometry>
        </mxCell>
        <mxCell id="SDIlasXmzMNW4l37rZuf-97" value="OneID赋值" style="rounded=0;whiteSpace=wrap;html=1;fontFamily=Helvetica;fontSize=18;gradientColor=#ffffff;" vertex="1" parent="1">
          <mxGeometry x="1287.5" y="1009.5699999999999" width="122.5" height="83" as="geometry" />
        </mxCell>
        <mxCell id="SDIlasXmzMNW4l37rZuf-98" style="edgeStyle=orthogonalEdgeStyle;rounded=0;jumpStyle=none;orthogonalLoop=1;jettySize=auto;html=1;entryX=0.5;entryY=0;entryDx=0;entryDy=0;fontFamily=Helvetica;fontSize=16;strokeColor=#000000;" edge="1" parent="1" source="SDIlasXmzMNW4l37rZuf-99" target="SDIlasXmzMNW4l37rZuf-114">
          <mxGeometry relative="1" as="geometry" />
        </mxCell>
        <mxCell id="SDIlasXmzMNW4l37rZuf-99" value="输出T-1日计算结果" style="rounded=0;whiteSpace=wrap;html=1;fontFamily=Helvetica;fontSize=18;gradientColor=#ffffff;" vertex="1" parent="1">
          <mxGeometry x="949.5" y="1176.57" width="208" height="55" as="geometry" />
        </mxCell>
        <mxCell id="SDIlasXmzMNW4l37rZuf-100" style="edgeStyle=orthogonalEdgeStyle;rounded=0;orthogonalLoop=1;jettySize=auto;html=1;exitX=1;exitY=0.5;exitDx=0;exitDy=0;fontSize=18;" edge="1" parent="1" source="SDIlasXmzMNW4l37rZuf-101">
          <mxGeometry relative="1" as="geometry">
            <mxPoint x="952.5" y="1310.01" as="targetPoint" />
          </mxGeometry>
        </mxCell>
        <mxCell id="SDIlasXmzMNW4l37rZuf-101" value="从每日全量更新聚合表中拆分增量ID信息&lt;br style=&quot;font-size: 18px;&quot;&gt;删除过滤节点和边&lt;br style=&quot;font-size: 18px;&quot;&gt;生成最终T日增量ID" style="rounded=0;whiteSpace=wrap;html=1;fontFamily=Helvetica;fontSize=18;gradientColor=#ffffff;" vertex="1" parent="1">
          <mxGeometry x="472.5" y="1260.01" width="350" height="100" as="geometry" />
        </mxCell>
        <mxCell id="SDIlasXmzMNW4l37rZuf-102" style="edgeStyle=orthogonalEdgeStyle;rounded=0;jumpStyle=none;orthogonalLoop=1;jettySize=auto;html=1;fontFamily=Helvetica;fontSize=16;strokeColor=#000000;entryX=0.197;entryY=-0.006;entryDx=0;entryDy=0;entryPerimeter=0;" edge="1" parent="1" source="SDIlasXmzMNW4l37rZuf-103" target="SDIlasXmzMNW4l37rZuf-101">
          <mxGeometry relative="1" as="geometry">
            <mxPoint x="542.5" y="1250.01" as="targetPoint" />
            <Array as="points">
              <mxPoint x="542.5" y="289.01" />
              <mxPoint x="542.5" y="844.01" />
              <mxPoint x="541.5" y="844.01" />
            </Array>
          </mxGeometry>
        </mxCell>
        <mxCell id="SDIlasXmzMNW4l37rZuf-103" value="" style="verticalLabelPosition=bottom;verticalAlign=top;html=1;shape=mxgraph.basic.rect;fillColor2=none;strokeWidth=3;size=20;indent=5;fontFamily=Helvetica;fontSize=16;gradientColor=#ffffff;fillColor=none;dashed=1;" vertex="1" parent="1">
          <mxGeometry x="624.5" y="106" width="896" height="277" as="geometry" />
        </mxCell>
        <mxCell id="SDIlasXmzMNW4l37rZuf-104" style="edgeStyle=orthogonalEdgeStyle;rounded=0;orthogonalLoop=1;jettySize=auto;html=1;exitX=0.5;exitY=1;exitDx=0;exitDy=0;entryX=0.5;entryY=0;entryDx=0;entryDy=0;fontSize=18;" edge="1" parent="1" source="SDIlasXmzMNW4l37rZuf-105" target="SDIlasXmzMNW4l37rZuf-83">
          <mxGeometry relative="1" as="geometry" />
        </mxCell>
        <mxCell id="SDIlasXmzMNW4l37rZuf-105" value="按条件过滤边和节点" style="rounded=0;whiteSpace=wrap;html=1;fontFamily=Helvetica;fontSize=18;strokeWidth=2;fillColor=none;gradientColor=#ffffff;" vertex="1" parent="1">
          <mxGeometry x="994.5" y="610.5699999999999" width="180" height="54" as="geometry" />
        </mxCell>
        <mxCell id="SDIlasXmzMNW4l37rZuf-106" style="edgeStyle=orthogonalEdgeStyle;rounded=0;orthogonalLoop=1;jettySize=auto;html=1;exitX=0.5;exitY=1;exitDx=0;exitDy=0;entryX=0.665;entryY=0.01;entryDx=0;entryDy=0;entryPerimeter=0;fontSize=18;" edge="1" parent="1" source="SDIlasXmzMNW4l37rZuf-107" target="SDIlasXmzMNW4l37rZuf-101">
          <mxGeometry relative="1" as="geometry" />
        </mxCell>
        <mxCell id="SDIlasXmzMNW4l37rZuf-107" value="全量输入过滤边和节点" style="rounded=0;whiteSpace=wrap;html=1;fontFamily=Helvetica;fontSize=18;strokeWidth=2;fillColor=none;gradientColor=#ffffff;" vertex="1" parent="1">
          <mxGeometry x="582.5" y="1182.07" width="228" height="44" as="geometry" />
        </mxCell>
        <mxCell id="SDIlasXmzMNW4l37rZuf-108" style="edgeStyle=orthogonalEdgeStyle;rounded=0;jumpStyle=none;orthogonalLoop=1;jettySize=auto;html=1;fontFamily=Helvetica;fontSize=16;strokeColor=#000000;" edge="1" parent="1" source="SDIlasXmzMNW4l37rZuf-109">
          <mxGeometry relative="1" as="geometry">
            <mxPoint x="684.5" y="1179.57" as="targetPoint" />
          </mxGeometry>
        </mxCell>
        <mxCell id="SDIlasXmzMNW4l37rZuf-109" value="" style="rounded=0;whiteSpace=wrap;html=1;fontFamily=Helvetica;fontSize=16;strokeWidth=2;fillColor=none;gradientColor=#ffffff;dashed=1;" vertex="1" parent="1">
          <mxGeometry x="733.5" y="481.06999999999994" width="679" height="100" as="geometry" />
        </mxCell>
        <mxCell id="SDIlasXmzMNW4l37rZuf-110" style="edgeStyle=orthogonalEdgeStyle;rounded=0;jumpStyle=none;orthogonalLoop=1;jettySize=auto;html=1;entryX=0.557;entryY=-0.023;entryDx=0;entryDy=0;entryPerimeter=0;fontFamily=Helvetica;fontSize=16;strokeColor=#000000;" edge="1" parent="1" source="SDIlasXmzMNW4l37rZuf-112" target="SDIlasXmzMNW4l37rZuf-116">
          <mxGeometry relative="1" as="geometry" />
        </mxCell>
        <mxCell id="SDIlasXmzMNW4l37rZuf-111" style="edgeStyle=orthogonalEdgeStyle;rounded=0;orthogonalLoop=1;jettySize=auto;html=1;entryX=0;entryY=0.5;entryDx=0;entryDy=0;fontSize=18;" edge="1" parent="1" source="SDIlasXmzMNW4l37rZuf-112" target="SDIlasXmzMNW4l37rZuf-114">
          <mxGeometry relative="1" as="geometry" />
        </mxCell>
        <mxCell id="SDIlasXmzMNW4l37rZuf-112" value="T日增量ID节点&lt;br style=&quot;font-size: 18px;&quot;&gt;边（两两建边），构建图" style="rounded=0;whiteSpace=wrap;html=1;fontFamily=Helvetica;fontSize=18;strokeWidth=2;fillColor=none;gradientColor=#ffffff;" vertex="1" parent="1">
          <mxGeometry x="952.5" y="1275.07" width="240" height="74.94" as="geometry" />
        </mxCell>
        <mxCell id="SDIlasXmzMNW4l37rZuf-113" style="edgeStyle=orthogonalEdgeStyle;rounded=0;jumpStyle=none;orthogonalLoop=1;jettySize=auto;html=1;exitX=0.5;exitY=1;exitDx=0;exitDy=0;entryX=1;entryY=0.5;entryDx=0;entryDy=0;fontFamily=Helvetica;fontSize=16;strokeColor=#000000;" edge="1" parent="1" source="SDIlasXmzMNW4l37rZuf-114" target="SDIlasXmzMNW4l37rZuf-116">
          <mxGeometry relative="1" as="geometry" />
        </mxCell>
        <mxCell id="SDIlasXmzMNW4l37rZuf-114" value="拆解T-1日计算结果&lt;br style=&quot;font-size: 18px&quot;&gt;构建仅OneID、普通ID的图" style="rounded=0;whiteSpace=wrap;html=1;fontFamily=Helvetica;fontSize=18;strokeWidth=2;fillColor=none;gradientColor=#ffffff;" vertex="1" parent="1">
          <mxGeometry x="1287.5" y="1279.79" width="254" height="65.5" as="geometry" />
        </mxCell>
        <mxCell id="SDIlasXmzMNW4l37rZuf-115" style="edgeStyle=orthogonalEdgeStyle;rounded=0;jumpStyle=none;orthogonalLoop=1;jettySize=auto;html=1;entryX=1;entryY=0.5;entryDx=0;entryDy=0;fontFamily=Helvetica;fontSize=16;strokeColor=#000000;" edge="1" parent="1" source="SDIlasXmzMNW4l37rZuf-116" target="SDIlasXmzMNW4l37rZuf-118">
          <mxGeometry relative="1" as="geometry" />
        </mxCell>
        <mxCell id="SDIlasXmzMNW4l37rZuf-116" value="合并，输入图框架&lt;br style=&quot;font-size: 18px;&quot;&gt;构造图" style="rounded=0;whiteSpace=wrap;html=1;fontFamily=Helvetica;fontSize=18;strokeWidth=2;fillColor=none;gradientColor=#ffffff;" vertex="1" parent="1">
          <mxGeometry x="1178" y="1413.57" width="164.5" height="60" as="geometry" />
        </mxCell>
        <mxCell id="SDIlasXmzMNW4l37rZuf-117" style="edgeStyle=orthogonalEdgeStyle;rounded=0;jumpStyle=none;orthogonalLoop=1;jettySize=auto;html=1;exitX=0.5;exitY=1;exitDx=0;exitDy=0;fontFamily=Helvetica;fontSize=16;strokeColor=#000000;" edge="1" parent="1" source="SDIlasXmzMNW4l37rZuf-118" target="SDIlasXmzMNW4l37rZuf-126">
          <mxGeometry relative="1" as="geometry" />
        </mxCell>
        <mxCell id="SDIlasXmzMNW4l37rZuf-118" value="极大连通图计算" style="rounded=0;whiteSpace=wrap;html=1;fontFamily=Helvetica;fontSize=18;strokeWidth=2;fillColor=none;gradientColor=#ffffff;" vertex="1" parent="1">
          <mxGeometry x="845.5" y="1413.57" width="244" height="60" as="geometry" />
        </mxCell>
        <mxCell id="SDIlasXmzMNW4l37rZuf-119" style="edgeStyle=orthogonalEdgeStyle;rounded=0;jumpStyle=none;orthogonalLoop=1;jettySize=auto;html=1;entryX=0;entryY=0.5;entryDx=0;entryDy=0;fontFamily=Helvetica;fontSize=16;strokeColor=#000000;" edge="1" parent="1" source="SDIlasXmzMNW4l37rZuf-120" target="SDIlasXmzMNW4l37rZuf-136">
          <mxGeometry relative="1" as="geometry" />
        </mxCell>
        <mxCell id="SDIlasXmzMNW4l37rZuf-120" value="候选ID池" style="rounded=1;whiteSpace=wrap;html=1;fontFamily=Helvetica;fontSize=18;gradientColor=#ffffff;" vertex="1" parent="1">
          <mxGeometry x="862.5" y="1867.57" width="131" height="52" as="geometry" />
        </mxCell>
        <mxCell id="SDIlasXmzMNW4l37rZuf-121" style="edgeStyle=orthogonalEdgeStyle;rounded=0;jumpStyle=none;orthogonalLoop=1;jettySize=auto;html=1;exitX=0.5;exitY=1;exitDx=0;exitDy=0;fontFamily=Helvetica;fontSize=16;strokeColor=#000000;" edge="1" parent="1" source="SDIlasXmzMNW4l37rZuf-122" target="SDIlasXmzMNW4l37rZuf-132">
          <mxGeometry relative="1" as="geometry" />
        </mxCell>
        <mxCell id="SDIlasXmzMNW4l37rZuf-122" value="按业务规则清洗&lt;br style=&quot;font-size: 18px;&quot;&gt;或按规则、置信度拆分&lt;br style=&quot;font-size: 18px;&quot;&gt;" style="rounded=0;whiteSpace=wrap;html=1;fontFamily=Helvetica;fontSize=18;gradientColor=#ffffff;" vertex="1" parent="1">
          <mxGeometry x="616.5" y="1624.57" width="187" height="56" as="geometry" />
        </mxCell>
        <mxCell id="SDIlasXmzMNW4l37rZuf-123" style="edgeStyle=orthogonalEdgeStyle;rounded=0;orthogonalLoop=1;jettySize=auto;html=1;exitX=0;exitY=0.5;exitDx=0;exitDy=0;entryX=0.5;entryY=0;entryDx=0;entryDy=0;fontFamily=Helvetica;fontSize=14;" edge="1" parent="1" source="SDIlasXmzMNW4l37rZuf-126" target="SDIlasXmzMNW4l37rZuf-122">
          <mxGeometry relative="1" as="geometry" />
        </mxCell>
        <mxCell id="SDIlasXmzMNW4l37rZuf-124" value="是" style="edgeLabel;html=1;align=center;verticalAlign=middle;resizable=0;points=[];fontSize=18;fontFamily=Helvetica;" vertex="1" connectable="0" parent="SDIlasXmzMNW4l37rZuf-123">
          <mxGeometry x="-0.1503" y="-4" relative="1" as="geometry">
            <mxPoint x="6" y="-11" as="offset" />
          </mxGeometry>
        </mxCell>
        <mxCell id="SDIlasXmzMNW4l37rZuf-125" style="edgeStyle=orthogonalEdgeStyle;rounded=0;orthogonalLoop=1;jettySize=auto;html=1;exitX=1;exitY=0.5;exitDx=0;exitDy=0;entryX=0.5;entryY=0;entryDx=0;entryDy=0;fontSize=18;" edge="1" parent="1" source="SDIlasXmzMNW4l37rZuf-126" target="SDIlasXmzMNW4l37rZuf-132">
          <mxGeometry relative="1" as="geometry">
            <Array as="points">
              <mxPoint x="1152.5" y="1568.01" />
              <mxPoint x="1152.5" y="1720.01" />
              <mxPoint x="947.5" y="1720.01" />
            </Array>
          </mxGeometry>
        </mxCell>
        <mxCell id="SDIlasXmzMNW4l37rZuf-126" value="判断每个极大联通图中&lt;br style=&quot;font-size: 18px;&quot;&gt;是否存在多自然人情况" style="rhombus;whiteSpace=wrap;html=1;fontFamily=Helvetica;fontSize=18;gradientColor=#ffffff;" vertex="1" parent="1">
          <mxGeometry x="802.5" y="1517.57" width="330" height="101" as="geometry" />
        </mxCell>
        <mxCell id="SDIlasXmzMNW4l37rZuf-127" value="输出最新T日OneID结果" style="rounded=0;whiteSpace=wrap;html=1;fontFamily=Helvetica;fontSize=18;strokeWidth=2;fillColor=none;gradientColor=#ffffff;" vertex="1" parent="1">
          <mxGeometry x="823.5" y="2002.57" width="288" height="60" as="geometry" />
        </mxCell>
        <mxCell id="SDIlasXmzMNW4l37rZuf-128" style="edgeStyle=orthogonalEdgeStyle;rounded=0;jumpStyle=none;orthogonalLoop=1;jettySize=auto;html=1;exitX=1;exitY=0.5;exitDx=0;exitDy=0;fontFamily=Helvetica;fontSize=16;strokeColor=#000000;" edge="1" parent="1" source="SDIlasXmzMNW4l37rZuf-132" target="SDIlasXmzMNW4l37rZuf-136">
          <mxGeometry relative="1" as="geometry" />
        </mxCell>
        <mxCell id="SDIlasXmzMNW4l37rZuf-129" value="否" style="edgeLabel;html=1;align=center;verticalAlign=middle;resizable=0;points=[];fontSize=18;fontFamily=Helvetica;" vertex="1" connectable="0" parent="SDIlasXmzMNW4l37rZuf-128">
          <mxGeometry x="-0.1798" y="1" relative="1" as="geometry">
            <mxPoint x="1" y="-15" as="offset" />
          </mxGeometry>
        </mxCell>
        <mxCell id="SDIlasXmzMNW4l37rZuf-130" style="edgeStyle=orthogonalEdgeStyle;rounded=0;jumpStyle=none;orthogonalLoop=1;jettySize=auto;html=1;fontFamily=Helvetica;fontSize=16;strokeColor=#000000;" edge="1" parent="1" source="SDIlasXmzMNW4l37rZuf-132" target="SDIlasXmzMNW4l37rZuf-134">
          <mxGeometry relative="1" as="geometry">
            <Array as="points">
              <mxPoint x="811.5" y="1797.57" />
              <mxPoint x="811.5" y="1797.57" />
            </Array>
          </mxGeometry>
        </mxCell>
        <mxCell id="SDIlasXmzMNW4l37rZuf-131" value="是" style="edgeLabel;html=1;align=center;verticalAlign=middle;resizable=0;points=[];fontSize=18;fontFamily=Helvetica;" vertex="1" connectable="0" parent="SDIlasXmzMNW4l37rZuf-130">
          <mxGeometry x="-0.2505" y="-1" relative="1" as="geometry">
            <mxPoint x="16" y="-14" as="offset" />
          </mxGeometry>
        </mxCell>
        <mxCell id="SDIlasXmzMNW4l37rZuf-132" value="判断是否存在&lt;br style=&quot;font-size: 18px&quot;&gt;旧OneID" style="rhombus;whiteSpace=wrap;html=1;fontFamily=Helvetica;fontSize=18;strokeWidth=2;fillColor=none;gradientColor=#ffffff;" vertex="1" parent="1">
          <mxGeometry x="822.5" y="1757.57" width="250" height="80" as="geometry" />
        </mxCell>
        <mxCell id="SDIlasXmzMNW4l37rZuf-133" style="edgeStyle=orthogonalEdgeStyle;rounded=0;jumpStyle=none;orthogonalLoop=1;jettySize=auto;html=1;exitX=0.5;exitY=1;exitDx=0;exitDy=0;fontFamily=Helvetica;fontSize=16;strokeColor=#000000;" edge="1" parent="1" source="SDIlasXmzMNW4l37rZuf-134" target="SDIlasXmzMNW4l37rZuf-127">
          <mxGeometry relative="1" as="geometry" />
        </mxCell>
        <mxCell id="SDIlasXmzMNW4l37rZuf-134" value="沿用旧OneID" style="rounded=0;whiteSpace=wrap;html=1;fontFamily=Helvetica;fontSize=18;strokeWidth=2;fillColor=none;gradientColor=#ffffff;" vertex="1" parent="1">
          <mxGeometry x="595.5" y="1859.57" width="176" height="60" as="geometry" />
        </mxCell>
        <mxCell id="SDIlasXmzMNW4l37rZuf-135" style="edgeStyle=orthogonalEdgeStyle;rounded=0;jumpStyle=none;orthogonalLoop=1;jettySize=auto;html=1;exitX=0.5;exitY=1;exitDx=0;exitDy=0;fontFamily=Helvetica;fontSize=16;strokeColor=#000000;" edge="1" parent="1" source="SDIlasXmzMNW4l37rZuf-136">
          <mxGeometry relative="1" as="geometry">
            <mxPoint x="967.300048828125" y="2000.1699755859374" as="targetPoint" />
          </mxGeometry>
        </mxCell>
        <mxCell id="SDIlasXmzMNW4l37rZuf-136" value="OneID赋值" style="rounded=0;whiteSpace=wrap;html=1;fontFamily=Helvetica;fontSize=18;strokeWidth=2;fillColor=none;gradientColor=#ffffff;" vertex="1" parent="1">
          <mxGeometry x="1123.5" y="1863.57" width="176" height="60" as="geometry" />
        </mxCell>
        <mxCell id="SDIlasXmzMNW4l37rZuf-137" value="" style="shape=curlyBracket;whiteSpace=wrap;html=1;rounded=1;flipH=1;rotation=90;" vertex="1" parent="1">
          <mxGeometry x="1050.07" y="25.37999999999988" width="58.13" height="526.25" as="geometry" />
        </mxCell>
        <mxCell id="SDIlasXmzMNW4l37rZuf-138" value="&lt;font style=&quot;font-size: 18px&quot;&gt;否&lt;/font&gt;" style="edgeLabel;html=1;align=center;verticalAlign=middle;resizable=0;points=[];fontSize=16;fontFamily=Helvetica;" vertex="1" connectable="0" parent="1">
          <mxGeometry x="1167.5002842916915" y="1791.5941727022753" as="geometry">
            <mxPoint x="-36" y="-147" as="offset" />
          </mxGeometry>
        </mxCell>
        <mxCell id="SDIlasXmzMNW4l37rZuf-139" value="Text" style="text;html=1;strokeColor=none;fillColor=none;align=center;verticalAlign=middle;whiteSpace=wrap;rounded=0;" vertex="1" parent="1">
          <mxGeometry x="1119" y="513" width="60" height="30" as="geometry" />
        </mxCell>
        <mxCell id="SDIlasXmzMNW4l37rZuf-140" value="&lt;font style=&quot;font-size: 16px;&quot;&gt;这里除设备外全部全量表，一柜通部分关联绝对可信部分不进图计算，埋点设备号不进图计算&lt;/font&gt;" style="text;html=1;strokeColor=none;fillColor=none;align=center;verticalAlign=middle;whiteSpace=wrap;rounded=0;" vertex="1" parent="1">
          <mxGeometry x="1228" y="325" width="237" height="30" as="geometry" />
        </mxCell>
        <mxCell id="SDIlasXmzMNW4l37rZuf-145" value="" style="endArrow=classic;html=1;rounded=0;" edge="1" parent="1">
          <mxGeometry width="50" height="50" relative="1" as="geometry">
            <mxPoint x="1299.5" y="693" as="sourcePoint" />
            <mxPoint x="1443.5" y="648" as="targetPoint" />
          </mxGeometry>
        </mxCell>
        <mxCell id="SDIlasXmzMNW4l37rZuf-146" value="" style="ellipse;whiteSpace=wrap;html=1;aspect=fixed;dashed=1;dashPattern=8 8;fillStyle=hatch;strokeWidth=5;" vertex="1" parent="1">
          <mxGeometry x="877" y="543" width="391" height="391" as="geometry" />
        </mxCell>
        <mxCell id="SDIlasXmzMNW4l37rZuf-147" value="&lt;font style=&quot;font-size: 16px;&quot;&gt;过滤5000个节点以上子图，对不同ID类型进行标识区分，增加自定义强弱ID，渠道数据接口，不在图计算阶段过滤（提升速度）&lt;/font&gt;" style="text;html=1;strokeColor=none;fillColor=none;align=center;verticalAlign=middle;whiteSpace=wrap;rounded=0;" vertex="1" parent="1">
          <mxGeometry x="1450" y="639" width="240" height="30" as="geometry" />
        </mxCell>
        <mxCell id="SDIlasXmzMNW4l37rZuf-148" value="" style="shape=flexArrow;endArrow=classic;html=1;rounded=0;" edge="1" parent="1" source="SDIlasXmzMNW4l37rZuf-99">
          <mxGeometry width="50" height="50" relative="1" as="geometry">
            <mxPoint x="1377" y="890" as="sourcePoint" />
            <mxPoint x="1710" y="1095" as="targetPoint" />
          </mxGeometry>
        </mxCell>
        <mxCell id="SDIlasXmzMNW4l37rZuf-149" value="Text" style="text;html=1;strokeColor=none;fillColor=none;align=center;verticalAlign=middle;whiteSpace=wrap;rounded=0;" vertex="1" parent="1">
          <mxGeometry x="1119" y="1009" width="60" height="30" as="geometry" />
        </mxCell>
        <mxCell id="SDIlasXmzMNW4l37rZuf-150" value="&lt;font style=&quot;font-size: 16px;&quot;&gt;增加不进入图计算部分的ID赋值，纯关联部分在增量计算时依然不进入图计算&lt;/font&gt;" style="text;html=1;strokeColor=none;fillColor=none;align=center;verticalAlign=middle;whiteSpace=wrap;rounded=0;" vertex="1" parent="1">
          <mxGeometry x="1740" y="1068" width="223" height="83" as="geometry" />
        </mxCell>
        <mxCell id="SDIlasXmzMNW4l37rZuf-153" value="" style="shape=flexArrow;endArrow=classic;html=1;rounded=0;" edge="1" parent="1">
          <mxGeometry width="50" height="50" relative="1" as="geometry">
            <mxPoint x="1216" y="1720" as="sourcePoint" />
            <mxPoint x="1580" y="1760" as="targetPoint" />
          </mxGeometry>
        </mxCell>
        <mxCell id="SDIlasXmzMNW4l37rZuf-154" value="&lt;span style=&quot;font-size: 16px;&quot;&gt;增加更改数据后oneid沿用逻辑，不在重跑赋值。增加更改数据源后更新ID接口，不再全量初始化&lt;/span&gt;" style="text;html=1;strokeColor=none;fillColor=none;align=center;verticalAlign=middle;whiteSpace=wrap;rounded=0;" vertex="1" parent="1">
          <mxGeometry x="1607" y="1742" width="223" height="83" as="geometry" />
        </mxCell>
      </root>
    </mxGraphModel>
  </diagram>
</mxfile>
